ffmpeg version 3.4.8-0ubuntu0.2 Copyright (c) 2000-2020 the FFmpeg developers
  built with gcc 7 (Ubuntu 7.5.0-3ubuntu1~18.04)
  configuration: --prefix=/usr --extra-version=0ubuntu0.2 --toolchain=hardened --libdir=/usr/lib/x86_64-linux-gnu --incdir=/usr/include/x86_64-linux-gnu --enable-gpl --disable-stripping --enable-avresample --enable-avisynth --enable-gnutls --enable-ladspa --enable-libass --enable-libbluray --enable-libbs2b --enable-libcaca --enable-libcdio --enable-libflite --enable-libfontconfig --enable-libfreetype --enable-libfribidi --enable-libgme --enable-libgsm --enable-libmp3lame --enable-libmysofa --enable-libopenjpeg --enable-libopenmpt --enable-libopus --enable-libpulse --enable-librubberband --enable-librsvg --enable-libshine --enable-libsnappy --enable-libsoxr --enable-libspeex --enable-libssh --enable-libtheora --enable-libtwolame --enable-libvorbis --enable-libvpx --enable-libwavpack --enable-libwebp --enable-libx265 --enable-libxml2 --enable-libxvid --enable-libzmq --enable-libzvbi --enable-omx --enable-openal --enable-opengl --enable-sdl2 --enable-libdc1394 --enable-libdrm --enable-libiec61883 --enable-chromaprint --enable-frei0r --enable-libopencv --enable-libx264 --enable-shared
  libavutil      55. 78.100 / 55. 78.100
  libavcodec     57.107.100 / 57.107.100
  libavformat    57. 83.100 / 57. 83.100
  libavdevice    57. 10.100 / 57. 10.100
  libavfilter     6.107.100 /  6.107.100
  libavresample   3.  7.  0 /  3.  7.  0
  libswscale      4.  8.100 /  4.  8.100
  libswresample   2.  9.100 /  2.  9.100
  libpostproc    54.  7.100 / 54.  7.100
[rawvideo @ 0x55c363123a20] Estimating duration from bitrate, this may be inaccurate
Input #0, rawvideo, from '../../SVC-Encoder-20220109T061506Z-001/SVC-Encoder/Dataset/RollerCoaster/ERP_8x8/tile_yuv/Tile_47_480x240.yuv':
  Duration: 00:00:10.00, start: 0.000000, bitrate: 41472 kb/s
    Stream #0:0: Video: rawvideo (I420 / 0x30323449), yuv420p, 480x240, 41472 kb/s, 30 tbr, 30 tbn, 30 tbc
Stream mapping:
  Stream #0:0 -> #0:0 (rawvideo (native) -> h264 (libx264))
Press [q] to stop, [?] for help
[libx264 @ 0x55c363130c60] using cpu capabilities: MMX2 SSE2Fast LZCNT SSSE3 SSE4.2 AVX
[libx264 @ 0x55c363130c60] profile High, level 2.1
Output #0, rawvideo, to 'RollerCoaster_Tile_47_480x240_x264_QP_32.h264':
  Metadata:
    encoder         : Lavf57.83.100
    Stream #0:0: Video: h264 (libx264), yuv420p, 480x240, q=-1--1, 30 fps, 30 tbn, 30 tbc
    Metadata:
      encoder         : Lavc57.107.100 libx264
    Side data:
      cpb: bitrate max/min/avg: 0/0/0 buffer size: 0 vbv_delay: -1
frame=  161 fps=0.0 q=38.0 PSNR=Y:nan U:nan V:nan *:nan size=      73kB time=00:00:03.93 bitrate= 152.3kbits/s speed=7.86x    frame=  300 fps=289 q=38.0 LPSNR=Y:inf U:inf V:inf *:inf size=     182kB time=00:00:09.93 bitrate= 150.0kbits/s speed=9.56x    
video:182kB audio:0kB subtitle:0kB other streams:0kB global headers:0kB muxing overhead: 0.000000%
[libx264 @ 0x55c363130c60] frame I:2     Avg QP:29.61  size: 10066  PSNR Mean Y:37.64 U:44.26 V:44.39 Avg:38.96 Global:38.93
[libx264 @ 0x55c363130c60] frame P:76    Avg QP:31.41  size:  1381  PSNR Mean Y:36.17 U:44.63 V:44.85 Avg:37.63 Global:37.59
[libx264 @ 0x55c363130c60] frame B:222   Avg QP:37.49  size:   276  PSNR Mean Y:35.71 U:44.50 V:44.69 Avg:37.19 Global:37.18
[libx264 @ 0x55c363130c60] consecutive B-frames:  0.7%  1.3%  2.0% 96.0%
[libx264 @ 0x55c363130c60] mb I  I16..4: 15.3% 58.8% 25.9%
[libx264 @ 0x55c363130c60] mb P  I16..4:  0.6%  1.2%  0.4%  P16..4: 41.3% 14.3%  5.0%  0.0%  0.0%    skip:37.2%
[libx264 @ 0x55c363130c60] mb B  I16..4:  0.0%  0.1%  0.1%  B16..8: 33.1%  2.5%  0.2%  direct: 0.2%  skip:63.9%  L0:39.3% L1:58.2% BI: 2.4%
[libx264 @ 0x55c363130c60] 8x8 transform intra:57.2% inter:71.4%
[libx264 @ 0x55c363130c60] coded y,uvDC,uvAC intra: 64.1% 64.5% 19.2% inter: 5.6% 2.8% 0.0%
[libx264 @ 0x55c363130c60] i16 v,h,dc,p: 28% 29% 21% 23%
[libx264 @ 0x55c363130c60] i8 v,h,dc,ddl,ddr,vr,hd,vl,hu:  9% 24% 18%  8%  5%  6% 10%  7% 14%
[libx264 @ 0x55c363130c60] i4 v,h,dc,ddl,ddr,vr,hd,vl,hu: 15% 21% 18%  6%  8%  6% 14%  7%  6%
[libx264 @ 0x55c363130c60] i8c dc,h,v,p: 52% 20% 17% 11%
[libx264 @ 0x55c363130c60] Weighted P-Frames: Y:0.0% UV:0.0%
[libx264 @ 0x55c363130c60] ref P L0: 56.2% 18.6% 18.1%  7.0%
[libx264 @ 0x55c363130c60] ref B L0: 82.3% 14.7%  3.0%
[libx264 @ 0x55c363130c60] ref B L1: 87.8% 12.2%
[libx264 @ 0x55c363130c60] PSNR Mean Y:35.835 U:44.529 V:44.727 Avg:37.317 Global:37.289 kb/s:149.04
